<mxfile host="app.diagrams.net" agent="Mozilla/5.0 (Windows NT 10.0; Win64; x64) AppleWebKit/537.36 (KHTML, like Gecko) Chrome/128.0.0.0 Safari/537.36 OPR/114.0.0.0" version="24.9.3">
  <diagram id="C5RBs43oDa-KdzZeNtuy" name="Page-1">
    <mxGraphModel dx="877" dy="484" grid="1" gridSize="10" guides="1" tooltips="1" connect="1" arrows="1" fold="1" page="1" pageScale="1" pageWidth="827" pageHeight="1169" math="0" shadow="0">
      <root>
        <mxCell id="WIyWlLk6GJQsqaUBKTNV-0" />
        <mxCell id="WIyWlLk6GJQsqaUBKTNV-1" parent="WIyWlLk6GJQsqaUBKTNV-0" />
        <mxCell id="Br24ICafhy1wDNoyXPe8-2" value="" style="edgeStyle=orthogonalEdgeStyle;rounded=0;orthogonalLoop=1;jettySize=auto;html=1;" edge="1" parent="WIyWlLk6GJQsqaUBKTNV-1" source="Br24ICafhy1wDNoyXPe8-0" target="Br24ICafhy1wDNoyXPe8-1">
          <mxGeometry relative="1" as="geometry" />
        </mxCell>
        <mxCell id="Br24ICafhy1wDNoyXPe8-0" value="Start" style="ellipse;whiteSpace=wrap;html=1;" vertex="1" parent="WIyWlLk6GJQsqaUBKTNV-1">
          <mxGeometry x="340" y="40" width="120" height="80" as="geometry" />
        </mxCell>
        <mxCell id="Br24ICafhy1wDNoyXPe8-78" value="" style="edgeStyle=orthogonalEdgeStyle;rounded=0;orthogonalLoop=1;jettySize=auto;html=1;" edge="1" parent="WIyWlLk6GJQsqaUBKTNV-1" source="Br24ICafhy1wDNoyXPe8-1">
          <mxGeometry relative="1" as="geometry">
            <mxPoint x="400.0000000000002" y="280" as="targetPoint" />
          </mxGeometry>
        </mxCell>
        <mxCell id="Br24ICafhy1wDNoyXPe8-1" value="&lt;div style=&quot;font-family: Consolas, &amp;quot;Courier New&amp;quot;, monospace; line-height: 22px; white-space: pre;&quot;&gt;n, vector inputs,&lt;/div&gt;&lt;div style=&quot;font-family: Consolas, &amp;quot;Courier New&amp;quot;, monospace; line-height: 22px; white-space: pre;&quot;&gt;vector temp_numbers&lt;/div&gt;" style="shape=internalStorage;whiteSpace=wrap;html=1;backgroundOutline=1;dx=10;dy=10;" vertex="1" parent="WIyWlLk6GJQsqaUBKTNV-1">
          <mxGeometry x="298.75" y="170" width="202.5" height="70" as="geometry" />
        </mxCell>
        <mxCell id="Br24ICafhy1wDNoyXPe8-68" value="End" style="ellipse;whiteSpace=wrap;html=1;" vertex="1" parent="WIyWlLk6GJQsqaUBKTNV-1">
          <mxGeometry x="160" y="1144.95" width="120" height="80" as="geometry" />
        </mxCell>
        <mxCell id="Br24ICafhy1wDNoyXPe8-99" value="" style="edgeStyle=orthogonalEdgeStyle;rounded=0;orthogonalLoop=1;jettySize=auto;html=1;" edge="1" parent="WIyWlLk6GJQsqaUBKTNV-1" source="Br24ICafhy1wDNoyXPe8-96" target="Br24ICafhy1wDNoyXPe8-98">
          <mxGeometry relative="1" as="geometry" />
        </mxCell>
        <mxCell id="Br24ICafhy1wDNoyXPe8-96" value="Input: n" style="shape=parallelogram;perimeter=parallelogramPerimeter;whiteSpace=wrap;html=1;fixedSize=1;" vertex="1" parent="WIyWlLk6GJQsqaUBKTNV-1">
          <mxGeometry x="340" y="280" width="120" height="60" as="geometry" />
        </mxCell>
        <mxCell id="Br24ICafhy1wDNoyXPe8-101" style="edgeStyle=orthogonalEdgeStyle;rounded=0;orthogonalLoop=1;jettySize=auto;html=1;entryX=0.75;entryY=0;entryDx=0;entryDy=0;exitX=1;exitY=0.5;exitDx=0;exitDy=0;" edge="1" parent="WIyWlLk6GJQsqaUBKTNV-1" source="Br24ICafhy1wDNoyXPe8-103" target="Br24ICafhy1wDNoyXPe8-100">
          <mxGeometry relative="1" as="geometry" />
        </mxCell>
        <mxCell id="Br24ICafhy1wDNoyXPe8-108" style="edgeStyle=orthogonalEdgeStyle;rounded=0;orthogonalLoop=1;jettySize=auto;html=1;entryX=0.5;entryY=0;entryDx=0;entryDy=0;" edge="1" parent="WIyWlLk6GJQsqaUBKTNV-1" source="Br24ICafhy1wDNoyXPe8-110" target="Br24ICafhy1wDNoyXPe8-107">
          <mxGeometry relative="1" as="geometry" />
        </mxCell>
        <mxCell id="Br24ICafhy1wDNoyXPe8-98" value="i = 0; i &amp;lt; n;&amp;nbsp; i++" style="shape=hexagon;perimeter=hexagonPerimeter2;whiteSpace=wrap;html=1;fixedSize=1;" vertex="1" parent="WIyWlLk6GJQsqaUBKTNV-1">
          <mxGeometry x="335" y="390" width="130" height="70" as="geometry" />
        </mxCell>
        <mxCell id="Br24ICafhy1wDNoyXPe8-100" value="Input: numbers[i]" style="shape=parallelogram;perimeter=parallelogramPerimeter;whiteSpace=wrap;html=1;fixedSize=1;" vertex="1" parent="WIyWlLk6GJQsqaUBKTNV-1">
          <mxGeometry x="490" y="510" width="130" height="60" as="geometry" />
        </mxCell>
        <mxCell id="Br24ICafhy1wDNoyXPe8-102" value="" style="edgeStyle=orthogonalEdgeStyle;rounded=0;orthogonalLoop=1;jettySize=auto;html=1;entryX=0;entryY=0.5;entryDx=0;entryDy=0;exitX=1;exitY=0.5;exitDx=0;exitDy=0;endArrow=none;endFill=0;" edge="1" parent="WIyWlLk6GJQsqaUBKTNV-1" source="Br24ICafhy1wDNoyXPe8-98" target="Br24ICafhy1wDNoyXPe8-103">
          <mxGeometry relative="1" as="geometry">
            <mxPoint x="465" y="425" as="sourcePoint" />
            <mxPoint x="530" y="510" as="targetPoint" />
          </mxGeometry>
        </mxCell>
        <mxCell id="Br24ICafhy1wDNoyXPe8-103" value="True" style="text;html=1;align=center;verticalAlign=middle;whiteSpace=wrap;rounded=0;" vertex="1" parent="WIyWlLk6GJQsqaUBKTNV-1">
          <mxGeometry x="500" y="411" width="60" height="30" as="geometry" />
        </mxCell>
        <mxCell id="Br24ICafhy1wDNoyXPe8-106" style="edgeStyle=orthogonalEdgeStyle;rounded=0;orthogonalLoop=1;jettySize=auto;html=1;entryX=0.625;entryY=1;entryDx=0;entryDy=0;exitX=0;exitY=0.5;exitDx=0;exitDy=0;" edge="1" parent="WIyWlLk6GJQsqaUBKTNV-1" source="Br24ICafhy1wDNoyXPe8-100" target="Br24ICafhy1wDNoyXPe8-98">
          <mxGeometry relative="1" as="geometry">
            <mxPoint x="470" y="625" as="sourcePoint" />
          </mxGeometry>
        </mxCell>
        <mxCell id="Br24ICafhy1wDNoyXPe8-126" value="" style="edgeStyle=orthogonalEdgeStyle;rounded=0;orthogonalLoop=1;jettySize=auto;html=1;" edge="1" parent="WIyWlLk6GJQsqaUBKTNV-1" source="Br24ICafhy1wDNoyXPe8-107" target="Br24ICafhy1wDNoyXPe8-125">
          <mxGeometry relative="1" as="geometry" />
        </mxCell>
        <mxCell id="Br24ICafhy1wDNoyXPe8-107" value="&lt;div style=&quot;line-height: 22px; white-space: pre;&quot;&gt;temp_nembers = numbers&lt;/div&gt;" style="rounded=0;whiteSpace=wrap;html=1;" vertex="1" parent="WIyWlLk6GJQsqaUBKTNV-1">
          <mxGeometry x="215" y="565" width="170" height="40" as="geometry" />
        </mxCell>
        <mxCell id="Br24ICafhy1wDNoyXPe8-109" value="" style="edgeStyle=orthogonalEdgeStyle;rounded=0;orthogonalLoop=1;jettySize=auto;html=1;entryX=0.5;entryY=0;entryDx=0;entryDy=0;endArrow=none;endFill=0;" edge="1" parent="WIyWlLk6GJQsqaUBKTNV-1" source="Br24ICafhy1wDNoyXPe8-98" target="Br24ICafhy1wDNoyXPe8-110">
          <mxGeometry relative="1" as="geometry">
            <mxPoint x="400" y="460" as="sourcePoint" />
            <mxPoint x="300" y="540" as="targetPoint" />
            <Array as="points">
              <mxPoint x="400" y="480" />
              <mxPoint x="300" y="480" />
            </Array>
          </mxGeometry>
        </mxCell>
        <mxCell id="Br24ICafhy1wDNoyXPe8-110" value="False" style="text;html=1;align=center;verticalAlign=middle;whiteSpace=wrap;rounded=0;" vertex="1" parent="WIyWlLk6GJQsqaUBKTNV-1">
          <mxGeometry x="270" y="510" width="60" height="25" as="geometry" />
        </mxCell>
        <mxCell id="Br24ICafhy1wDNoyXPe8-128" value="" style="edgeStyle=orthogonalEdgeStyle;rounded=0;orthogonalLoop=1;jettySize=auto;html=1;" edge="1" parent="WIyWlLk6GJQsqaUBKTNV-1" source="Br24ICafhy1wDNoyXPe8-125" target="Br24ICafhy1wDNoyXPe8-127">
          <mxGeometry relative="1" as="geometry" />
        </mxCell>
        <mxCell id="Br24ICafhy1wDNoyXPe8-125" value="&lt;div style=&quot;font-family: Consolas, &amp;quot;Courier New&amp;quot;, monospace; line-height: 22px; white-space: pre;&quot;&gt;gcd&lt;/div&gt;" style="shape=internalStorage;whiteSpace=wrap;html=1;backgroundOutline=1;dx=10;dy=10;" vertex="1" parent="WIyWlLk6GJQsqaUBKTNV-1">
          <mxGeometry x="264.38" y="640" width="71.25" height="50" as="geometry" />
        </mxCell>
        <mxCell id="Br24ICafhy1wDNoyXPe8-130" value="" style="edgeStyle=orthogonalEdgeStyle;rounded=0;orthogonalLoop=1;jettySize=auto;html=1;" edge="1" parent="WIyWlLk6GJQsqaUBKTNV-1" source="Br24ICafhy1wDNoyXPe8-127" target="Br24ICafhy1wDNoyXPe8-129">
          <mxGeometry relative="1" as="geometry" />
        </mxCell>
        <mxCell id="Br24ICafhy1wDNoyXPe8-127" value="&lt;div style=&quot;line-height: 22px; white-space: pre;&quot;&gt;&lt;div style=&quot;line-height: 22px;&quot;&gt;&lt;font face=&quot;Helvetica&quot; style=&quot;&quot;&gt;gcd = temp_numbers[0]&lt;/font&gt;&lt;/div&gt;&lt;/div&gt;" style="rounded=0;whiteSpace=wrap;html=1;" vertex="1" parent="WIyWlLk6GJQsqaUBKTNV-1">
          <mxGeometry x="215" y="730" width="170" height="40" as="geometry" />
        </mxCell>
        <mxCell id="Br24ICafhy1wDNoyXPe8-132" value="" style="edgeStyle=orthogonalEdgeStyle;rounded=0;orthogonalLoop=1;jettySize=auto;html=1;" edge="1" parent="WIyWlLk6GJQsqaUBKTNV-1" source="Br24ICafhy1wDNoyXPe8-147" target="Br24ICafhy1wDNoyXPe8-131">
          <mxGeometry relative="1" as="geometry" />
        </mxCell>
        <mxCell id="Br24ICafhy1wDNoyXPe8-151" style="edgeStyle=orthogonalEdgeStyle;rounded=0;orthogonalLoop=1;jettySize=auto;html=1;exitX=0;exitY=0.5;exitDx=0;exitDy=0;entryX=0.5;entryY=0;entryDx=0;entryDy=0;" edge="1" parent="WIyWlLk6GJQsqaUBKTNV-1" source="Br24ICafhy1wDNoyXPe8-154" target="Br24ICafhy1wDNoyXPe8-150">
          <mxGeometry relative="1" as="geometry" />
        </mxCell>
        <mxCell id="Br24ICafhy1wDNoyXPe8-152" style="edgeStyle=orthogonalEdgeStyle;rounded=0;orthogonalLoop=1;jettySize=auto;html=1;entryX=0.5;entryY=0;entryDx=0;entryDy=0;exitX=0.625;exitY=1;exitDx=0;exitDy=0;endArrow=none;endFill=0;" edge="1" parent="WIyWlLk6GJQsqaUBKTNV-1" source="Br24ICafhy1wDNoyXPe8-129" target="Br24ICafhy1wDNoyXPe8-147">
          <mxGeometry relative="1" as="geometry" />
        </mxCell>
        <mxCell id="Br24ICafhy1wDNoyXPe8-129" value="&lt;div style=&quot;font-family: Consolas, &amp;quot;Courier New&amp;quot;, monospace; line-height: 22px; white-space: pre;&quot;&gt;&lt;font style=&quot;&quot;&gt;i = 1; i &amp;lt; n; ++i&lt;/font&gt;&lt;/div&gt;" style="shape=hexagon;perimeter=hexagonPerimeter2;whiteSpace=wrap;html=1;fixedSize=1;" vertex="1" parent="WIyWlLk6GJQsqaUBKTNV-1">
          <mxGeometry x="482.5" y="720" width="145" height="60" as="geometry" />
        </mxCell>
        <mxCell id="Br24ICafhy1wDNoyXPe8-136" style="edgeStyle=orthogonalEdgeStyle;rounded=0;orthogonalLoop=1;jettySize=auto;html=1;entryX=0.5;entryY=0;entryDx=0;entryDy=0;" edge="1" parent="WIyWlLk6GJQsqaUBKTNV-1" source="Br24ICafhy1wDNoyXPe8-138" target="Br24ICafhy1wDNoyXPe8-134">
          <mxGeometry relative="1" as="geometry" />
        </mxCell>
        <mxCell id="Br24ICafhy1wDNoyXPe8-139" style="edgeStyle=orthogonalEdgeStyle;rounded=0;orthogonalLoop=1;jettySize=auto;html=1;entryX=0;entryY=0.5;entryDx=0;entryDy=0;exitX=1;exitY=0.5;exitDx=0;exitDy=0;endArrow=none;endFill=0;" edge="1" parent="WIyWlLk6GJQsqaUBKTNV-1" source="Br24ICafhy1wDNoyXPe8-131" target="Br24ICafhy1wDNoyXPe8-138">
          <mxGeometry relative="1" as="geometry">
            <mxPoint x="665" y="884.9500000000003" as="sourcePoint" />
          </mxGeometry>
        </mxCell>
        <mxCell id="Br24ICafhy1wDNoyXPe8-131" value="&lt;div style=&quot;line-height: 22px; white-space: pre;&quot;&gt;&lt;font face=&quot;Helvetica&quot; style=&quot;&quot;&gt;temp_numbers[i] != 0&lt;/font&gt;&lt;/div&gt;" style="rhombus;whiteSpace=wrap;html=1;" vertex="1" parent="WIyWlLk6GJQsqaUBKTNV-1">
          <mxGeometry x="490" y="854.95" width="175" height="80" as="geometry" />
        </mxCell>
        <mxCell id="Br24ICafhy1wDNoyXPe8-133" value="" style="edgeStyle=orthogonalEdgeStyle;rounded=0;orthogonalLoop=1;jettySize=auto;html=1;" edge="1" parent="WIyWlLk6GJQsqaUBKTNV-1" source="Br24ICafhy1wDNoyXPe8-134" target="Br24ICafhy1wDNoyXPe8-135">
          <mxGeometry relative="1" as="geometry" />
        </mxCell>
        <mxCell id="Br24ICafhy1wDNoyXPe8-134" value="&lt;div style=&quot;font-family: Consolas, &amp;quot;Courier New&amp;quot;, monospace; line-height: 22px; white-space: pre;&quot;&gt;temp&lt;/div&gt;" style="shape=internalStorage;whiteSpace=wrap;html=1;backgroundOutline=1;dx=10;dy=10;" vertex="1" parent="WIyWlLk6GJQsqaUBKTNV-1">
          <mxGeometry x="714.38" y="938.95" width="71.25" height="50" as="geometry" />
        </mxCell>
        <mxCell id="Br24ICafhy1wDNoyXPe8-141" value="" style="edgeStyle=orthogonalEdgeStyle;rounded=0;orthogonalLoop=1;jettySize=auto;html=1;" edge="1" parent="WIyWlLk6GJQsqaUBKTNV-1" source="Br24ICafhy1wDNoyXPe8-135" target="Br24ICafhy1wDNoyXPe8-140">
          <mxGeometry relative="1" as="geometry" />
        </mxCell>
        <mxCell id="Br24ICafhy1wDNoyXPe8-135" value="&lt;div style=&quot;line-height: 22px; white-space: pre;&quot;&gt;&lt;div style=&quot;line-height: 22px;&quot;&gt;&lt;font face=&quot;Helvetica&quot; style=&quot;&quot;&gt;temp = temp_numbers[i]&lt;/font&gt;&lt;/div&gt;&lt;/div&gt;" style="rounded=0;whiteSpace=wrap;html=1;" vertex="1" parent="WIyWlLk6GJQsqaUBKTNV-1">
          <mxGeometry x="665" y="1028.95" width="170" height="40" as="geometry" />
        </mxCell>
        <mxCell id="Br24ICafhy1wDNoyXPe8-138" value="True" style="text;html=1;align=center;verticalAlign=middle;whiteSpace=wrap;rounded=0;" vertex="1" parent="WIyWlLk6GJQsqaUBKTNV-1">
          <mxGeometry x="720.01" y="879.95" width="60" height="30" as="geometry" />
        </mxCell>
        <mxCell id="Br24ICafhy1wDNoyXPe8-144" value="" style="edgeStyle=orthogonalEdgeStyle;rounded=0;orthogonalLoop=1;jettySize=auto;html=1;" edge="1" parent="WIyWlLk6GJQsqaUBKTNV-1" source="Br24ICafhy1wDNoyXPe8-140" target="Br24ICafhy1wDNoyXPe8-142">
          <mxGeometry relative="1" as="geometry" />
        </mxCell>
        <mxCell id="Br24ICafhy1wDNoyXPe8-140" value="&lt;span style=&quot;white-space: pre;&quot;&gt;temp_numbers[i] = gcd %&lt;/span&gt;&lt;div&gt;&lt;span style=&quot;white-space: pre;&quot;&gt;temp_numbers[i]&lt;/span&gt;&lt;br&gt;&lt;/div&gt;" style="rounded=0;whiteSpace=wrap;html=1;" vertex="1" parent="WIyWlLk6GJQsqaUBKTNV-1">
          <mxGeometry x="665" y="1104.95" width="170" height="40" as="geometry" />
        </mxCell>
        <mxCell id="Br24ICafhy1wDNoyXPe8-145" style="edgeStyle=orthogonalEdgeStyle;rounded=0;orthogonalLoop=1;jettySize=auto;html=1;entryX=0.5;entryY=1;entryDx=0;entryDy=0;" edge="1" parent="WIyWlLk6GJQsqaUBKTNV-1" source="Br24ICafhy1wDNoyXPe8-142" target="Br24ICafhy1wDNoyXPe8-131">
          <mxGeometry relative="1" as="geometry">
            <Array as="points">
              <mxPoint x="577.5" y="1204.95" />
            </Array>
          </mxGeometry>
        </mxCell>
        <mxCell id="Br24ICafhy1wDNoyXPe8-142" value="&lt;div&gt;&lt;span style=&quot;white-space: pre;&quot;&gt;gcd = temp&lt;/span&gt;&lt;/div&gt;" style="rounded=0;whiteSpace=wrap;html=1;" vertex="1" parent="WIyWlLk6GJQsqaUBKTNV-1">
          <mxGeometry x="665.01" y="1184.95" width="170" height="40" as="geometry" />
        </mxCell>
        <mxCell id="Br24ICafhy1wDNoyXPe8-147" value="True" style="text;html=1;align=center;verticalAlign=middle;whiteSpace=wrap;rounded=0;" vertex="1" parent="WIyWlLk6GJQsqaUBKTNV-1">
          <mxGeometry x="547" y="799.95" width="60" height="30" as="geometry" />
        </mxCell>
        <mxCell id="Br24ICafhy1wDNoyXPe8-156" value="" style="edgeStyle=orthogonalEdgeStyle;rounded=0;orthogonalLoop=1;jettySize=auto;html=1;" edge="1" parent="WIyWlLk6GJQsqaUBKTNV-1" source="Br24ICafhy1wDNoyXPe8-150" target="Br24ICafhy1wDNoyXPe8-155">
          <mxGeometry relative="1" as="geometry" />
        </mxCell>
        <mxCell id="Br24ICafhy1wDNoyXPe8-150" value="sum" style="shape=internalStorage;whiteSpace=wrap;html=1;backgroundOutline=1;dx=10;dy=10;" vertex="1" parent="WIyWlLk6GJQsqaUBKTNV-1">
          <mxGeometry x="330" y="875" width="70" height="50" as="geometry" />
        </mxCell>
        <mxCell id="Br24ICafhy1wDNoyXPe8-153" value="" style="edgeStyle=orthogonalEdgeStyle;rounded=0;orthogonalLoop=1;jettySize=auto;html=1;exitX=0.375;exitY=1;exitDx=0;exitDy=0;entryX=1;entryY=0.5;entryDx=0;entryDy=0;endArrow=none;endFill=0;" edge="1" parent="WIyWlLk6GJQsqaUBKTNV-1" source="Br24ICafhy1wDNoyXPe8-129" target="Br24ICafhy1wDNoyXPe8-154">
          <mxGeometry relative="1" as="geometry">
            <mxPoint x="537" y="780" as="sourcePoint" />
            <mxPoint x="365" y="875" as="targetPoint" />
          </mxGeometry>
        </mxCell>
        <mxCell id="Br24ICafhy1wDNoyXPe8-154" value="False" style="text;html=1;align=center;verticalAlign=middle;whiteSpace=wrap;rounded=0;" vertex="1" parent="WIyWlLk6GJQsqaUBKTNV-1">
          <mxGeometry x="430" y="811" width="50" height="30" as="geometry" />
        </mxCell>
        <mxCell id="Br24ICafhy1wDNoyXPe8-158" style="edgeStyle=orthogonalEdgeStyle;rounded=0;orthogonalLoop=1;jettySize=auto;html=1;entryX=0.75;entryY=0;entryDx=0;entryDy=0;exitX=1;exitY=0.5;exitDx=0;exitDy=0;" edge="1" parent="WIyWlLk6GJQsqaUBKTNV-1" source="Br24ICafhy1wDNoyXPe8-160" target="Br24ICafhy1wDNoyXPe8-157">
          <mxGeometry relative="1" as="geometry" />
        </mxCell>
        <mxCell id="Br24ICafhy1wDNoyXPe8-162" style="edgeStyle=orthogonalEdgeStyle;rounded=0;orthogonalLoop=1;jettySize=auto;html=1;entryX=0.5;entryY=0;entryDx=0;entryDy=0;" edge="1" parent="WIyWlLk6GJQsqaUBKTNV-1" source="Br24ICafhy1wDNoyXPe8-164" target="Br24ICafhy1wDNoyXPe8-161">
          <mxGeometry relative="1" as="geometry" />
        </mxCell>
        <mxCell id="Br24ICafhy1wDNoyXPe8-155" value="&lt;div style=&quot;font-family: Consolas, &amp;quot;Courier New&amp;quot;, monospace; line-height: 22px; white-space: pre;&quot;&gt;&lt;font style=&quot;&quot;&gt;j = 0; j &amp;lt; n; j++&lt;/font&gt;&lt;/div&gt;" style="shape=hexagon;perimeter=hexagonPerimeter2;whiteSpace=wrap;html=1;fixedSize=1;" vertex="1" parent="WIyWlLk6GJQsqaUBKTNV-1">
          <mxGeometry x="292.5" y="960" width="145" height="60" as="geometry" />
        </mxCell>
        <mxCell id="Br24ICafhy1wDNoyXPe8-157" value="&lt;div style=&quot;line-height: 22px; white-space: pre;&quot;&gt;&lt;div style=&quot;line-height: 22px;&quot;&gt;&lt;div style=&quot;line-height: 22px;&quot;&gt;&lt;font face=&quot;Helvetica&quot; style=&quot;&quot;&gt;sum += (numbers[j] / gcd)&lt;/font&gt;&lt;/div&gt;&lt;/div&gt;&lt;/div&gt;" style="rounded=0;whiteSpace=wrap;html=1;" vertex="1" parent="WIyWlLk6GJQsqaUBKTNV-1">
          <mxGeometry x="360" y="1060" width="170" height="40" as="geometry" />
        </mxCell>
        <mxCell id="Br24ICafhy1wDNoyXPe8-159" value="" style="edgeStyle=orthogonalEdgeStyle;rounded=0;orthogonalLoop=1;jettySize=auto;html=1;entryX=0;entryY=0.5;entryDx=0;entryDy=0;exitX=1;exitY=0.5;exitDx=0;exitDy=0;endArrow=none;endFill=0;" edge="1" parent="WIyWlLk6GJQsqaUBKTNV-1" source="Br24ICafhy1wDNoyXPe8-155" target="Br24ICafhy1wDNoyXPe8-160">
          <mxGeometry relative="1" as="geometry">
            <mxPoint x="438" y="990" as="sourcePoint" />
            <mxPoint x="488" y="1060" as="targetPoint" />
          </mxGeometry>
        </mxCell>
        <mxCell id="Br24ICafhy1wDNoyXPe8-160" value="True" style="text;html=1;align=center;verticalAlign=middle;whiteSpace=wrap;rounded=0;" vertex="1" parent="WIyWlLk6GJQsqaUBKTNV-1">
          <mxGeometry x="480" y="974" width="37" height="30" as="geometry" />
        </mxCell>
        <mxCell id="Br24ICafhy1wDNoyXPe8-165" value="" style="edgeStyle=orthogonalEdgeStyle;rounded=0;orthogonalLoop=1;jettySize=auto;html=1;" edge="1" parent="WIyWlLk6GJQsqaUBKTNV-1" source="Br24ICafhy1wDNoyXPe8-161" target="Br24ICafhy1wDNoyXPe8-68">
          <mxGeometry relative="1" as="geometry" />
        </mxCell>
        <mxCell id="Br24ICafhy1wDNoyXPe8-161" value="Output: sum" style="rounded=0;whiteSpace=wrap;html=1;" vertex="1" parent="WIyWlLk6GJQsqaUBKTNV-1">
          <mxGeometry x="160" y="1040" width="120" height="60" as="geometry" />
        </mxCell>
        <mxCell id="Br24ICafhy1wDNoyXPe8-163" value="" style="edgeStyle=orthogonalEdgeStyle;rounded=0;orthogonalLoop=1;jettySize=auto;html=1;entryX=1;entryY=0.5;entryDx=0;entryDy=0;endArrow=none;endFill=0;" edge="1" parent="WIyWlLk6GJQsqaUBKTNV-1" source="Br24ICafhy1wDNoyXPe8-155" target="Br24ICafhy1wDNoyXPe8-164">
          <mxGeometry relative="1" as="geometry">
            <mxPoint x="293" y="990" as="sourcePoint" />
            <mxPoint x="220" y="1040" as="targetPoint" />
          </mxGeometry>
        </mxCell>
        <mxCell id="Br24ICafhy1wDNoyXPe8-164" value="False" style="text;html=1;align=center;verticalAlign=middle;whiteSpace=wrap;rounded=0;" vertex="1" parent="WIyWlLk6GJQsqaUBKTNV-1">
          <mxGeometry x="200" y="974" width="40" height="30" as="geometry" />
        </mxCell>
      </root>
    </mxGraphModel>
  </diagram>
</mxfile>
